<?xml version="1.0" encoding="UTF-8" standalone="no"?>
<!-- Created with Inkscape (http://www.inkscape.org/) -->

<svg
   xmlns:dc="http://purl.org/dc/elements/1.1/"
   xmlns:cc="http://creativecommons.org/ns#"
   xmlns:rdf="http://www.w3.org/1999/02/22-rdf-syntax-ns#"
   xmlns:svg="http://www.w3.org/2000/svg"
   xmlns="http://www.w3.org/2000/svg"
   xmlns:sodipodi="http://sodipodi.sourceforge.net/DTD/sodipodi-0.dtd"
   xmlns:inkscape="http://www.inkscape.org/namespaces/inkscape"
   width="744.09448819"
   height="1052.3622047"
   id="svg2"
   version="1.1"
   inkscape:version="0.48.3.1 r9886"
   sodipodi:docname="New document 1">
  <defs
     id="defs4" />
  <sodipodi:namedview
     id="base"
     pagecolor="#ffffff"
     bordercolor="#666666"
     borderopacity="1.0"
     inkscape:pageopacity="0.0"
     inkscape:pageshadow="2"
     inkscape:zoom="1.4"
     inkscape:cx="388.02395"
     inkscape:cy="712.88034"
     inkscape:document-units="px"
     inkscape:current-layer="layer1"
     showgrid="true"
     showguides="true"
     inkscape:guide-bbox="true"
     inkscape:snap-global="false"
     inkscape:snap-grids="true"
     inkscape:window-width="1440"
     inkscape:window-height="875"
     inkscape:window-x="0"
     inkscape:window-y="0"
     inkscape:window-maximized="1" />
  <metadata
     id="metadata7">
    <rdf:RDF>
      <cc:Work
         rdf:about="">
        <dc:format>image/svg+xml</dc:format>
        <dc:type
           rdf:resource="http://purl.org/dc/dcmitype/StillImage" />
        <dc:title></dc:title>
      </cc:Work>
    </rdf:RDF>
  </metadata>
  <g
     inkscape:label="Layer 1"
     inkscape:groupmode="layer"
     id="layer1">
    <path
       style="fill:none;stroke:#000000;stroke-width:1px;stroke-linecap:butt;stroke-linejoin:miter;stroke-opacity:1"
       d="m 360.714,220.93361 c -15.47619,9.52381 -13.80924,4.76191 -29.28543,14.28572 1.90476,-14.76191 -1.19047,-20.2381 0.71429,-35.00001 -16.66667,-7.61905 -30.47619,-17.38095 -47.14286,-25 -3.57143,15 3.57143,32.85715 0,47.85715 10.47619,9.04762 14.5238,12.38095 24.99999,21.42857 -23.57143,5.95238 -35.71427,12.61904 -59.2857,18.57142 -1.64533,-36.92183 16.66665,-75.23809 25.71427,-120.71428 -33.74765,50.60777 -79.07146,144.29318 -74.99999,151.42858 2.42297,4.24634 68.33333,8.80952 120.71428,9.28571 -16.90476,18.57143 -33.80952,37.14285 -50.71428,55.71428 18.33333,23.33333 36.66667,46.66667 55,70 -20.47619,7.61905 -40.95239,15.2381 -61.42858,22.85715 10.47619,10.95238 20.95239,21.90476 31.42858,32.85714 9.52381,-1.90476 19.04762,-3.80953 28.57143,-5.71429 0.47619,7.38095 0.95238,14.76191 1.42857,22.14286 11.66667,0.71429 22.61876,1.42857 34.28543,2.14286 l 0,0 c -11.66667,-0.71429 -22.61876,-1.42857 -34.28543,-2.14286 -0.47619,-7.38095 -0.95238,-14.76191 -1.42857,-22.14286 -9.52381,1.90476 -19.04762,3.80953 -28.57143,5.71429 -10.47619,-10.95238 -20.95239,-21.90476 -31.42858,-32.85714 20.47619,-7.61905 40.95239,-15.2381 61.42858,-22.85715 -18.33333,-23.33333 -36.66667,-46.66667 -55,-70 16.90476,-18.57143 33.80952,-37.14285 50.71428,-55.71428 -52.38095,-0.47619 -118.29131,-5.03937 -120.71428,-9.28571 -4.07147,-7.1354 41.25234,-100.82081 74.99999,-151.42858 -9.04762,45.47619 -27.3596,83.79245 -25.71427,120.71428 23.57143,-5.95238 35.71427,-12.61904 59.2857,-18.57142 C 299.5238,235.45742 295.47619,232.12409 285,223.07647 c 3.57143,-15 -3.57143,-32.85715 0,-47.85715 16.66667,7.61905 30.47619,17.38095 47.14286,25 -1.90476,14.76191 1.19047,20.2381 -0.71429,35.00001 15.47619,-9.52381 13.80924,-4.76191 29.28543,-14.28572 l 0,0 c 15.47619,9.52381 13.80924,4.76191 29.28543,14.28572 -1.90476,-14.76191 1.19047,-20.2381 -0.71429,-35.00001 16.66667,-7.61905 30.47619,-17.38095 47.14286,-25 3.57143,15 -3.57143,32.85715 0,47.85715 -10.47619,9.04762 -14.5238,12.38095 -24.99999,21.42857 23.57143,5.95238 35.71427,12.61904 59.2857,18.57142 1.64533,-36.92183 -16.66665,-75.23809 -25.71427,-120.71428 33.74765,50.60777 79.07146,144.29318 74.99999,151.42858 -2.42297,4.24634 -68.33333,8.80952 -120.71428,9.28571 16.90476,18.57143 33.80952,37.14285 50.71428,55.71428 -18.33333,23.33333 -36.66667,46.66667 -55,70 20.47619,7.61905 40.95239,15.2381 61.42858,22.85715 -10.47619,10.95238 -20.95239,21.90476 -31.42858,32.85714 -9.52381,-1.90476 -19.04762,-3.80953 -28.57143,-5.71429 -0.47619,7.38095 -0.95238,14.76191 -1.42857,22.14286 -11.66667,0.71429 -22.61876,1.42857 -34.28543,2.14286"
       id="path2995"
       inkscape:connector-curvature="0"
       sodipodi:nodetypes="ccccccccsccccccccccccccccsccccccccccccccccscccccccc"
       inkscape:tile-cx="280.94322"
       inkscape:tile-cy="322.71933"
       inkscape:tile-w="159.54157"
       inkscape:tile-h="360.71429"
       inkscape:tile-x0="201.17243"
       inkscape:tile-y0="142.36218" />
  </g>
</svg>
