<?xml version="1.0" encoding="UTF-8" standalone="no"?>
<!-- Created with Inkscape (http://www.inkscape.org/) -->

<svg
   xmlns:dc="http://purl.org/dc/elements/1.1/"
   xmlns:cc="http://creativecommons.org/ns#"
   xmlns:rdf="http://www.w3.org/1999/02/22-rdf-syntax-ns#"
   xmlns:svg="http://www.w3.org/2000/svg"
   xmlns="http://www.w3.org/2000/svg"
   xmlns:sodipodi="http://sodipodi.sourceforge.net/DTD/sodipodi-0.dtd"
   xmlns:inkscape="http://www.inkscape.org/namespaces/inkscape"
   id="svg2"
   height="100"
   width="88"
   version="1.1"
   inkscape:version="0.48.3.1 r9886"
   sodipodi:docname="take6.svg">
  <defs
     id="defs8" />
  <sodipodi:namedview
     pagecolor="#ffffff"
     bordercolor="#666666"
     borderopacity="1"
     objecttolerance="10"
     gridtolerance="10"
     guidetolerance="10"
     inkscape:pageopacity="0"
     inkscape:pageshadow="2"
     inkscape:window-width="1440"
     inkscape:window-height="875"
     id="namedview6"
     showgrid="false"
     inkscape:zoom="6.675088"
     inkscape:cx="35.030548"
     inkscape:cy="42.936742"
     inkscape:window-x="0"
     inkscape:window-y="0"
     inkscape:window-maximized="1"
     inkscape:current-layer="svg2" />
  <metadata
     id="metadata3060">
    <rdf:RDF>
      <cc:Work
         rdf:about="">
        <dc:format>image/svg+xml</dc:format>
        <dc:type
           rdf:resource="http://purl.org/dc/dcmitype/StillImage" />
        <dc:title />
      </cc:Work>
    </rdf:RDF>
  </metadata>
  <g
     id="layer1"
     transform="translate(0,-952.36175)">
    <path
       id="path2995"
       d="m 35.9487,978.1695 c 0.52367,-4.0812 -0.32729,-5.5952 0.19639,-9.6763 -4.5821,-2.1064 -8.3787,-4.8052 -12.961,-6.9116 -0.98188,4.147 0.98187,9.0839 0,13.231 2.8802,2.5013 3.993,3.423 6.8732,5.9242 -6.4804,1.6456 -9.8188,3.4888 -16.299,5.1344 -0.45234,-10.207 4.5821,-20.8 7.0695,-33.373 -9.2781,13.991 -21.739,39.892 -20.619,41.865 0.66614,1.1741 18.787,2.4355 33.188,2.5673 -4.6476,5.1345 -9.2951,10.269 -13.943,15.403 5.0403,6.4512 10.081,12.902 15.121,19.352 -5.6294,2.1065 -11.259,4.2123 -16.888,6.3188 2.8802,3.0275 5.7604,6.0557 8.6405,9.0831 2.6183,-0.5264 5.2367,-1.0523 7.855,-1.579 0.13092,2.0404 0.26184,4.0812 0.39275,6.1215 3.2075,0.1973 6.2185,0.3951 9.424485,0.6085 3.205985,-0.1811 6.216985,-0.3789 9.424485,-0.5762 0.13091,-2.0403 0.26184,-4.0811 0.39275,-6.1215 2.6183,0.5267 5.2366,1.0526 7.855,1.579 2.8801,-3.0274 5.7603,-6.0556 8.6405,-9.0831 -5.629,-2.1065 -11.2586,-4.2123 -16.888,-6.3188 5.04,-6.45 10.0807,-12.9008 15.121,-19.352 -4.6479,-5.134 -9.2954,-10.2685 -13.943,-15.403 14.401,-0.1318 32.52187,-1.3932 33.188,-2.5673 1.12,-1.973 -11.3409,-27.874 -20.619,-41.865 2.4874,12.573 7.52184,23.166 7.0695,33.373 -6.4802,-1.6456 -9.8186,-3.4888 -16.299,-5.1344 2.8802,-2.5012 3.993,-3.4229 6.8732,-5.9242 -0.98188,-4.1471 0.98188,-9.084 0,-13.231 -4.5823,2.1064 -8.3789,4.8052 -12.961,6.9116 0.52367,4.0811 -0.32729,5.5951 0.19638,9.6763 -4.2548,-2.633 -3.7965,-1.3165 -8.05082,-3.96565 -4.25432,2.61685 -3.79602,1.30035 -8.05082,3.93335 z"
       inkscape:connector-curvature="0"
       style="fill:none;stroke:#000000;stroke-width:0.27569404px;stroke-linecap:butt;stroke-linejoin:miter"
       sodipodi:nodetypes="ccccccccccccccccccccccccccccccccc" />
  </g>
</svg>
